<svg xmlns="http://www.w3.org/2000/svg" viewBox="0 0 369 150"><defs><style>.a{fill:#fff;}.b{fill:none;stroke:#7ecbd2;stroke-width:3px;}.b,.c{stroke-miterlimit:10;}.c{fill:#2a8ac3;stroke:#2b83b7;}.d{fill:#2293d2;}</style></defs><title>アートボード 4</title><rect class="a" x="1.5" y="1.5" width="366" height="147" rx="17.01"/><rect class="b" x="1.5" y="1.5" width="366" height="147" rx="17.01"/><rect class="c" x="36.16" y="67.51" width="37.07" height="16.96"/><polygon class="c" points="93.36 75.99 56.62 54.78 56.62 97.2 93.36 75.99"/><rect class="c" x="57.67" y="28.99" width="5.7" height="16.63"/><rect class="c" x="57.67" y="104.6" width="5.7" height="20.58"/><rect class="c" x="57.67" y="28.99" width="47.4" height="6.77"/><rect class="c" x="57.67" y="118.4" width="47.4" height="6.77"/><rect class="c" x="99.36" y="28.99" width="5.7" height="96.19"/><path class="d" d="M152.86,42.82V88.35h9V99.74h-23.8V42.82Z"/><path class="d" d="M197.15,69.47V80.9a48.51,48.51,0,0,1-.63,9.23,12.88,12.88,0,0,1-2.71,5.48,12.18,12.18,0,0,1-5.32,3.76,21.28,21.28,0,0,1-7.47,1.21,26.71,26.71,0,0,1-8-1A10.86,10.86,0,0,1,168,96.42a12.42,12.42,0,0,1-2.59-5.06,38.43,38.43,0,0,1-.77-8.92v-12A29.2,29.2,0,0,1,166,60.33a11.63,11.63,0,0,1,5.06-5.87,17.78,17.78,0,0,1,9.35-2.21,21.36,21.36,0,0,1,8.21,1.42,12.88,12.88,0,0,1,7.84,8.42A29.21,29.21,0,0,1,197.15,69.47ZM183,66a15.39,15.39,0,0,0-.39-4.52,1.58,1.58,0,0,0-1.65-.93,1.66,1.66,0,0,0-1.68.93A13.92,13.92,0,0,0,178.8,66V87a13.3,13.3,0,0,0,.43,4.31,1.61,1.61,0,0,0,1.65,1,1.63,1.63,0,0,0,1.67-.91,11.94,11.94,0,0,0,.4-3.94Z"/><path class="d" d="M234.1,53.09V89a80.31,80.31,0,0,1-.33,9.4,9.32,9.32,0,0,1-2.37,4.5,12.71,12.71,0,0,1-5.68,3.62,28.41,28.41,0,0,1-9.16,1.25q-6.78,0-10.9-2.3t-4.25-9h13.78q0,3.09,2.25,3.09a2.23,2.23,0,0,0,2.14-1,9.45,9.45,0,0,0,.53-4V91.08a13.54,13.54,0,0,1-3.85,2.51,10.93,10.93,0,0,1-4.23.84,11.73,11.73,0,0,1-6.31-1.54,8,8,0,0,1-3.4-4.06,21.91,21.91,0,0,1-.91-7.16V64.73c0-4.43.79-7.62,2.39-9.57s4-2.91,7.28-2.91A10.78,10.78,0,0,1,216,53.34a11.69,11.69,0,0,1,3.92,3.27l1-3.52ZM219.87,65.46a13.61,13.61,0,0,0-.37-4.07,1.58,1.58,0,0,0-1.64-.88,1.79,1.79,0,0,0-1.74,1,10.06,10.06,0,0,0-.51,3.95V81.14A13,13,0,0,0,216,85.2a1.57,1.57,0,0,0,1.62.94A1.74,1.74,0,0,0,219.44,85a18.1,18.1,0,0,0,.43-5.1Z"/><path class="d" d="M253.79,42.82v7.42H239.17V42.82Zm0,10.27V99.74H239.17V53.09Z"/><path class="d" d="M273.34,53.09l-.25,4.3a10.62,10.62,0,0,1,3.78-3.86A10.12,10.12,0,0,1,282,52.25,9.77,9.77,0,0,1,288,54a7.66,7.66,0,0,1,3,4.34,40.22,40.22,0,0,1,.66,8.74V99.74h-14.2V67.43a30.33,30.33,0,0,0-.31-5.87c-.22-.7-.8-1.05-1.76-1.05a1.76,1.76,0,0,0-1.9,1.21,30.27,30.27,0,0,0-.39,6.49V99.74h-14.2V53.09Z"/></svg>